# xmcd CD database file
#
# Track frame offsets:
#	150
#	31178
#	45057
#	69737
#	80316
#	95396
#	121426
#	138455
#	162984
#	180764
#	200644
#	218539
#	261769
#	275939
#	317436
#	329581
#
# Disc length: 4602 seconds
#
# Revision: 0
# Processed by: cddbd v1.5.2PL0 Copyright (c) Steve Scherf et al.
# Submitted via: CDex 1.72
#
DISCID=dc11f810
DTITLE=Art Pepper - 1954-1962, CD 3 sur 6
DYEAR=1900
DGENRE=Jazz
TTITLE0=Mucho Calor
TTITLE1=Autumn Leaves
TTITLE2=Mambo De La Pinta
TTITLE3=I'll Remember April
TTITLE4=Vaya Hombre Vaya
TTITLE5=I Love You
TTITLE6=Mambo Jumbo
TTITLE7=Old Devil Moon
TTITLE8=Pernod
TTITLE9=That Old Black Magic
TTITLE10=Deep Purple
TTITLE11=Watkins Products
TTITLE12=Everything Happens To Me
TTITLE13=Redd's Head
TTITLE14=These Foolish Things
TTITLE15=What's New
EXTD=
EXTT0=
EXTT1=
EXTT2=
EXTT3=
EXTT4=
EXTT5=
EXTT6=
EXTT7=
EXTT8=
EXTT9=
EXTT10=
EXTT11=
EXTT12=
EXTT13=
EXTT14=
EXTT15=
PLAYORDER=
